<?xml version="1.0" encoding="UTF-8" standalone="no"?>
<!DOCTYPE svg PUBLIC "-//W3C//DTD SVG 1.1//EN" "http://www.w3.org/Graphics/SVG/1.1/DTD/svg11.dtd">
<svg version="1.1" xmlns="http://www.w3.org/2000/svg" xmlns:xlink="http://www.w3.org/1999/xlink" preserveAspectRatio="xMidYMid meet" viewBox="0.5931108719053668 1.6910656620021314 572.7405812701834 572.7405812701834" width="568.74" height="568.74"><defs><path d="M570.33 287.06C570.33 444.01 442.91 571.43 285.96 571.43C129.02 571.43 1.59 444.01 1.59 287.06C1.59 130.11 129.02 2.69 285.96 2.69C442.91 2.69 570.33 130.11 570.33 287.06Z" id="b5NdGp14B"></path><path d="M49.74 363.7L309.56 73.79L333.53 95.27L73.71 385.18L49.74 363.7Z" id="a17ikLQee"></path><path d="M79.97 390.95L339.8 101.05L363.77 122.53L103.94 412.44L79.97 390.95Z" id="bXgxpmJOF"></path><path d="M434.5 450.6L327.08 175.88L357.06 164.16L464.48 438.88L434.5 450.6Z" id="e3vXuaknZ"></path><path d="M111.99 418.06L371.81 128.15L395.78 149.64L135.96 439.54L111.99 418.06Z" id="i46xSTrgWk"></path><path d="M473.63 435.48L366.21 160.76L396.19 149.04L503.61 423.75L473.63 435.48Z" id="k2bF6sSG1T"></path><path d="M395.06 465.97L299.96 222.75L329.94 211.02L425.04 454.25L395.06 465.97Z" id="c4Cf9InjS"></path></defs><g><g><use xlink:href="#b5NdGp14B" opacity="1" fill="#02833d" fill-opacity="1"></use></g><g><use xlink:href="#a17ikLQee" opacity="1" fill="#cfe4b9" fill-opacity="1"></use></g><g><use xlink:href="#bXgxpmJOF" opacity="1" fill="#344b1b" fill-opacity="1"></use></g><g><use xlink:href="#e3vXuaknZ" opacity="1" fill="#344b1b" fill-opacity="1"></use></g><g><use xlink:href="#i46xSTrgWk" opacity="1" fill="#cfe4b9" fill-opacity="1"></use></g><g><use xlink:href="#k2bF6sSG1T" opacity="1" fill="#cfe4b9" fill-opacity="1"></use></g><g><use xlink:href="#c4Cf9InjS" opacity="1" fill="#cfe4b9" fill-opacity="1"></use></g></g></svg>